<svg width="32" height="32" viewBox="0 0 32 32" fill="none" xmlns="http://www.w3.org/2000/svg">
<path d="M21.3334 8C21.3334 10.9455 18.9456 13.3333 16.0001 13.3333C13.0546 13.3333 10.6667 10.9455 10.6667 8C10.6667 5.05449 13.0546 2.66667 16.0001 2.66667C18.9456 2.66667 21.3334 5.05449 21.3334 8Z" fill="#9B87F6"/>
<path d="M20.9042 18.0037C20.2734 18.0114 19.6855 18.0344 19.1731 18.1033C18.316 18.2185 17.3777 18.4939 16.6025 19.2692C15.8272 20.0444 15.5518 20.9827 15.4365 21.8399C15.333 22.6102 15.3331 23.5513 15.3333 24.552V24.7813C15.3331 25.782 15.333 26.7232 15.4365 27.4935C15.5174 28.0949 15.6772 28.7363 16.0331 29.3333C16.0221 29.3333 16.011 29.3333 15.9999 29.3333C5.33325 29.3333 5.33325 26.6471 5.33325 23.3333C5.33325 20.0196 10.1089 17.3333 15.9999 17.3333C17.7682 17.3333 19.4359 17.5754 20.9042 18.0037Z" fill="#9B87F6"/>
<path fill-rule="evenodd" clip-rule="evenodd" d="M18.0169 28.6499C18.7003 29.3333 19.8003 29.3333 22.0002 29.3333C24.2 29.3333 25.3 29.3333 25.9834 28.6499C26.6668 27.9665 26.6668 26.8666 26.6668 24.6667C26.6668 22.4668 26.6668 21.3668 25.9834 20.6834C25.3 20 24.2 20 22.0002 20C19.8003 20 18.7003 20 18.0169 20.6834C17.3335 21.3668 17.3335 22.4668 17.3335 24.6667C17.3335 26.8666 17.3335 27.9665 18.0169 28.6499ZM20.7023 26.6353C19.7662 25.965 18.6668 25.1778 18.6668 23.813C18.6668 22.3065 20.5002 21.238 22.0002 22.6864C23.5001 21.238 25.3335 22.3065 25.3335 23.813C25.3335 25.1778 24.2341 25.965 23.2981 26.6353C23.2008 26.705 23.1053 26.7734 23.0129 26.841C22.6668 27.0946 22.3335 27.3333 22.0002 27.3333C21.6668 27.3333 21.3335 27.0946 20.9874 26.841C20.8951 26.7734 20.7995 26.705 20.7023 26.6353Z" fill="#9B87F6"/>
</svg>
