<svg width="32" height="32" viewBox="0 0 32 32" fill="none" xmlns="http://www.w3.org/2000/svg">
<path fill-rule="evenodd" clip-rule="evenodd" d="M11.0002 8.01986C11.0001 8.01326 11 8.00664 11 8.00001V6.66667C11 3.90525 13.2386 1.66667 16 1.66667C18.7614 1.66667 21 3.90525 21 6.66667V8.00001C21 8.00664 20.9999 8.01326 20.9998 8.01987C22.7161 8.07138 23.7664 8.25654 24.5681 8.92197C25.679 9.84393 25.9717 11.4045 26.5569 14.5257L27.5569 19.859C28.3798 24.248 28.7913 26.4424 27.5916 27.8879C26.392 29.3333 24.1593 29.3333 19.6939 29.3333H12.3061C7.84064 29.3333 5.60794 29.3333 4.40831 27.8879C3.20869 26.4424 3.62015 24.248 4.44308 19.859L5.44308 14.5257C6.0283 11.4045 6.32091 9.84393 7.43181 8.92197C8.23361 8.25653 9.28384 8.07138 11.0002 8.01986ZM13 6.66667C13 5.00982 14.3431 3.66667 16 3.66667C17.6569 3.66667 19 5.00982 19 6.66667V8.00001C19 7.99999 19 8.00002 19 8.00001C18.8996 7.99997 18.7976 8.00001 18.6939 8.00001H13.3061C13.2024 8.00001 13.1004 8.00001 13 8.00004C13 8.00003 13 8.00005 13 8.00004V6.66667ZM12 17.5956C12 18.9082 13.5531 20.2951 14.7238 21.1541C15.2835 21.5647 15.5633 21.7701 16 21.7701C16.4367 21.7701 16.7165 21.5648 17.2762 21.1541C18.4468 20.2951 20 18.9082 20 17.5956C20 15.3647 17.7999 14.5317 16 16.2551C14.2 14.5317 12 15.3647 12 17.5956Z" fill="#9B87F6"/>
</svg>
